<?xml version="1.0" encoding="UTF-8" ?>
<!DOCTYPE svg PUBLIC "-//W3C//DTD SVG 1.1//EN" "http://www.w3.org/Graphics/SVG/1.1/DTD/svg11.dtd">
<svg width="1200pt" height="395pt" viewBox="0 0 1200 395" version="1.1" xmlns="http://www.w3.org/2000/svg">
<g id="#01828fff">
<path fill="#01828f" opacity="1.00" d=" M 126.24 30.22 C 147.19 9.91 176.87 -1.00 205.97 0.73 C 229.43 2.14 252.43 11.35 270.02 27.01 C 290.00 44.24 302.96 69.26 305.74 95.47 C 308.23 117.93 303.31 141.16 291.82 160.62 C 291.90 160.94 292.08 161.57 292.17 161.89 C 293.78 163.29 296.06 162.70 298.02 162.95 C 337.02 164.63 373.50 190.26 388.98 225.99 C 399.43 249.40 400.91 276.63 393.14 301.06 C 385.52 325.40 368.73 346.67 346.95 359.89 C 325.42 373.26 298.94 378.22 273.99 373.96 C 248.60 369.90 225.07 355.97 208.90 336.05 C 205.68 332.07 203.11 327.60 199.76 323.72 C 199.42 318.49 203.24 314.41 204.81 309.68 C 217.02 281.15 215.13 247.48 201.06 219.96 C 200.66 218.86 199.94 218.09 198.91 217.65 C 196.66 220.40 195.36 223.76 193.89 226.96 C 183.08 251.55 182.31 280.34 191.63 305.52 C 193.73 310.83 195.81 316.27 199.27 320.88 C 198.26 322.99 197.27 325.12 195.92 327.04 C 188.85 337.07 180.77 346.55 170.81 353.82 C 148.72 370.77 119.73 378.34 92.17 374.46 C 67.04 371.21 43.35 358.42 26.65 339.40 C 10.35 321.19 0.97 297.14 0.00 272.77 L 0.00 264.32 C 1.35 236.01 14.34 208.40 35.62 189.64 C 55.61 171.83 82.48 161.64 109.33 162.87 C 98.77 145.94 93.13 125.99 93.45 106.03 C 93.42 77.70 105.64 49.64 126.24 30.22 M 109.30 162.92 C 127.75 192.66 161.54 212.91 196.78 213.02 C 178.61 183.00 144.45 163.24 109.30 162.92 M 213.21 197.17 C 208.80 202.16 204.78 207.48 200.90 212.89 C 236.40 213.82 270.50 193.75 289.66 164.34 C 289.70 164.05 289.76 163.48 289.80 163.20 C 287.95 162.43 285.92 162.93 284.00 162.97 C 257.20 164.80 231.30 177.30 213.21 197.17 Z" />
</g>
<g id="#010101ff">
<path fill="#010101" opacity="1.00" d=" M 486.70 4.66 C 495.24 0.64 504.92 1.66 514.08 1.62 C 534.17 2.20 551.21 20.10 552.79 39.80 C 545.93 39.77 539.08 39.60 532.22 39.71 C 531.41 33.69 528.93 27.63 523.95 23.89 C 516.31 17.98 505.61 17.59 496.74 20.65 C 487.36 24.23 481.11 33.51 479.24 43.13 C 476.72 56.00 477.26 70.26 484.30 81.69 C 492.63 95.48 514.40 98.44 525.80 86.88 C 530.12 82.91 530.95 76.88 532.61 71.56 C 539.34 71.60 546.07 71.49 552.80 71.61 C 551.59 84.41 545.51 97.31 534.49 104.44 C 521.41 112.61 504.58 114.01 490.08 109.02 C 479.95 105.65 471.00 98.68 465.64 89.40 C 457.26 75.29 455.84 58.00 458.66 42.09 C 461.21 26.13 471.49 10.93 486.70 4.66 Z" />
<path fill="#010101" opacity="1.00" d=" M 573.55 2.67 C 600.23 2.38 626.91 2.49 653.59 2.46 C 653.69 8.68 653.83 14.90 653.49 21.11 C 633.58 21.00 613.66 21.10 593.75 21.07 C 593.88 29.11 593.88 37.14 593.73 45.18 C 612.44 45.53 631.16 45.12 649.88 45.44 C 649.95 51.57 649.78 57.71 649.74 63.84 C 631.07 63.82 612.40 63.72 593.73 63.87 C 593.88 73.07 593.89 82.26 593.75 91.46 C 614.45 91.53 635.15 91.62 655.85 91.36 C 656.04 97.64 656.03 103.92 656.04 110.20 C 628.58 110.21 601.13 110.20 573.67 110.20 C 573.67 74.36 573.63 38.52 573.55 2.67 Z" />
<path fill="#010101" opacity="1.00" d=" M 884.43 2.47 C 891.13 2.42 897.83 2.52 904.53 2.63 C 904.41 24.10 904.27 45.57 904.46 67.04 C 904.71 74.62 905.58 83.12 911.32 88.71 C 916.27 93.38 923.58 93.51 929.99 93.29 C 935.50 93.19 941.60 91.68 945.07 87.05 C 949.77 80.75 950.08 72.52 950.32 64.98 C 950.43 44.13 950.26 23.28 950.42 2.43 C 957.13 2.42 963.85 2.61 970.56 2.46 C 970.59 24.64 970.64 46.82 970.49 69.00 C 970.06 80.04 968.30 92.02 960.69 100.59 C 952.71 109.26 940.30 111.69 929.01 111.83 C 916.97 112.08 903.71 110.08 894.71 101.38 C 886.08 92.81 884.52 79.95 884.33 68.38 C 884.11 46.42 884.04 24.44 884.43 2.47 Z" />
<path fill="#010101" opacity="1.00" d=" M 677.48 110.18 C 677.27 74.29 677.32 38.38 677.47 2.48 C 683.73 2.56 689.99 2.58 696.25 2.47 C 710.03 22.86 723.51 43.47 737.18 63.93 C 739.53 67.33 741.30 71.18 744.39 74.02 C 743.92 50.23 744.32 26.43 744.05 2.63 C 750.56 2.44 757.07 2.57 763.58 2.46 C 763.84 38.41 763.78 74.39 763.51 110.35 C 757.29 110.15 751.08 110.08 744.86 110.16 C 728.54 86.57 713.45 62.12 696.64 38.87 C 696.81 62.62 696.71 86.37 696.77 110.12 C 690.34 110.29 683.91 110.15 677.48 110.18 Z" />
<path fill="#010101" opacity="1.00" d=" M 780.55 2.75 C 809.57 2.19 838.60 2.68 867.63 2.46 C 867.78 8.64 867.57 14.82 867.79 20.99 C 856.58 21.17 845.38 21.00 834.17 21.09 C 834.24 50.83 834.36 80.57 834.08 110.31 C 827.42 110.16 820.76 110.11 814.10 110.20 C 814.10 80.49 814.13 50.78 814.12 21.07 C 802.94 21.02 791.76 21.20 780.58 20.88 C 780.69 14.84 780.73 8.79 780.55 2.75 Z" />
<path fill="#010101" opacity="1.00" d=" M 996.01 2.61 C 1013.66 2.56 1031.32 2.32 1048.98 2.57 C 1057.24 2.69 1066.08 3.96 1072.68 9.35 C 1084.82 19.27 1087.54 38.71 1078.64 51.61 C 1075.54 56.13 1070.93 59.31 1066.11 61.77 C 1074.28 68.33 1077.40 78.67 1080.78 88.14 C 1083.37 95.52 1086.25 102.80 1088.78 110.21 C 1081.54 110.14 1074.30 110.32 1067.06 110.09 C 1064.22 101.86 1061.27 93.66 1058.41 85.44 C 1056.92 81.02 1055.31 76.43 1051.92 73.08 C 1048.33 69.27 1043.22 66.91 1037.96 66.98 C 1030.74 66.92 1023.52 66.73 1016.30 66.98 C 1016.42 81.39 1016.39 95.79 1016.42 110.20 C 1009.64 110.17 1002.87 110.20 996.10 110.18 C 996.16 74.32 996.11 38.46 996.01 2.61 M 1016.31 20.28 C 1016.45 29.65 1016.25 39.02 1016.46 48.39 C 1026.62 48.25 1036.78 48.42 1046.94 48.19 C 1051.51 47.97 1056.56 47.31 1059.98 43.95 C 1063.80 39.66 1064.04 33.11 1062.15 27.92 C 1059.91 22.43 1053.51 20.42 1048.05 20.31 C 1037.47 20.18 1026.89 20.14 1016.31 20.28 Z" />
<path fill="#010101" opacity="1.00" d=" M 1094.26 2.56 C 1102.46 2.51 1110.67 2.41 1118.88 2.67 C 1128.14 17.18 1137.70 31.49 1146.91 46.04 C 1156.08 32.44 1164.83 18.55 1173.85 4.86 C 1174.64 3.82 1175.31 2.09 1176.98 2.47 C 1184.44 2.43 1191.91 2.54 1199.38 2.60 C 1186.00 23.06 1171.96 43.07 1158.22 63.29 C 1157.01 64.92 1156.94 67.00 1156.96 68.95 C 1156.98 82.67 1157.00 96.39 1157.08 110.11 C 1150.38 110.25 1143.69 110.16 1137.00 110.24 C 1136.98 95.81 1137.03 81.38 1136.98 66.96 C 1137.09 65.32 1136.33 63.86 1135.44 62.56 C 1121.71 42.56 1107.92 22.60 1094.26 2.56 Z" />
<path fill="#010101" opacity="1.00" d=" M 713.96 143.79 C 728.42 134.33 747.85 133.04 763.43 140.51 C 776.82 146.62 785.55 160.23 787.51 174.58 C 780.58 174.85 773.65 174.77 766.72 174.74 C 765.82 170.12 764.67 165.23 761.33 161.71 C 750.36 149.67 728.19 151.78 719.30 165.28 C 714.44 172.15 712.75 180.70 712.49 188.97 C 712.09 199.31 713.89 210.31 720.22 218.77 C 728.47 229.82 745.51 232.19 756.97 224.94 C 763.08 220.91 765.75 213.57 766.89 206.65 C 773.73 206.60 780.57 206.74 787.42 206.61 C 786.06 219.04 780.47 231.61 769.97 238.92 C 749.25 252.69 717.65 248.82 702.69 228.29 C 692.80 214.78 690.52 197.11 692.57 180.85 C 694.45 166.41 701.35 151.80 713.96 143.79 Z" />
<path fill="#010101" opacity="1.00" d=" M 1125.45 144.49 C 1139.92 134.45 1159.79 132.84 1175.71 140.37 C 1188.96 146.49 1198.77 159.99 1199.42 174.72 C 1192.70 174.70 1185.97 174.84 1179.26 174.63 C 1178.37 168.70 1176.01 162.63 1170.99 159.00 C 1162.54 152.43 1150.37 152.48 1141.02 157.05 C 1132.75 161.28 1127.98 170.16 1126.12 178.96 C 1124.66 186.55 1124.62 194.42 1125.85 202.05 C 1127.23 209.96 1130.65 217.89 1136.95 223.10 C 1145.72 230.14 1158.82 231.00 1168.57 225.51 C 1175.14 221.63 1178.43 214.05 1179.29 206.73 C 1185.99 206.60 1192.70 206.68 1199.42 206.68 C 1199.09 221.41 1190.35 235.78 1176.98 242.19 C 1166.41 247.04 1154.23 248.21 1142.88 245.76 C 1130.66 243.20 1119.38 235.78 1112.93 224.99 C 1105.03 211.88 1103.20 195.87 1105.08 180.89 C 1106.92 166.82 1113.51 152.70 1125.45 144.49 Z" />
<path fill="#010101" opacity="1.00" d=" M 908.32 137.45 C 932.19 137.55 956.07 137.53 979.95 137.43 C 981.04 137.63 983.66 136.84 983.25 138.91 C 983.57 144.62 983.36 150.35 983.34 156.07 C 964.98 156.08 946.63 155.88 928.27 156.23 C 928.29 164.43 928.44 172.63 928.39 180.83 C 944.38 180.92 960.37 180.61 976.36 180.98 C 976.20 187.05 976.20 193.12 976.33 199.18 C 960.36 199.30 944.40 199.24 928.43 199.22 C 928.36 214.52 928.34 229.82 928.41 245.11 C 921.65 245.23 914.90 245.22 908.15 245.18 C 908.16 209.27 907.93 173.36 908.32 137.45 Z" />
<path fill="#010101" opacity="1.00" d=" M 457.22 245.05 C 457.50 209.17 457.28 173.29 457.39 137.41 C 472.89 137.60 488.40 137.28 503.89 137.67 C 514.45 138.22 525.87 140.61 533.49 148.50 C 540.71 156.30 541.83 167.80 540.30 177.89 C 539.27 186.45 534.16 194.40 526.70 198.75 C 511.64 207.31 493.75 203.77 477.30 204.99 C 477.55 218.39 477.49 231.79 477.41 245.20 C 470.68 245.16 463.95 245.19 457.22 245.05 M 477.41 156.14 C 477.51 166.08 477.53 176.02 477.36 185.95 C 484.57 186.34 491.79 186.03 499.01 186.15 C 504.81 186.09 511.31 185.92 515.94 181.91 C 520.45 178.05 521.13 171.40 519.88 165.92 C 518.43 160.65 513.16 157.20 507.89 156.72 C 497.78 155.48 487.56 156.16 477.41 156.14 Z" />
<path fill="#010101" opacity="1.00" d=" M 600.16 137.62 C 606.67 137.49 613.19 137.45 619.70 137.65 C 633.99 173.62 648.88 209.35 663.49 245.19 C 656.05 245.13 648.61 245.40 641.19 244.97 C 636.63 235.05 633.12 224.70 629.24 214.51 C 616.69 214.32 604.14 214.37 591.60 214.39 C 587.56 224.53 584.24 234.97 580.13 245.08 C 573.01 245.38 565.87 245.12 558.75 245.18 C 572.76 209.41 586.59 173.56 600.16 137.62 M 609.62 163.75 C 605.50 174.89 601.66 186.15 597.45 197.26 C 605.92 197.32 614.40 197.17 622.88 197.36 C 620.03 189.81 617.05 182.31 614.26 174.73 C 612.77 171.05 611.69 167.17 609.62 163.75 Z" />
<path fill="#010101" opacity="1.00" d=" M 837.52 137.68 C 844.29 137.50 851.07 137.38 857.85 137.63 C 857.71 173.46 857.72 209.29 857.77 245.12 C 851.04 245.29 844.30 245.16 837.57 245.20 C 837.65 209.36 837.65 173.52 837.52 137.68 Z" />
<path fill="#010101" opacity="1.00" d=" M 1033.73 137.58 C 1040.52 137.46 1047.32 137.48 1054.12 137.69 C 1053.81 173.50 1053.98 209.32 1054.02 245.13 C 1047.25 245.09 1040.50 245.24 1033.75 245.19 C 1033.83 209.32 1033.84 173.45 1033.73 137.58 Z" />
<path fill="#010101" opacity="1.00" d=" M 581.58 273.67 C 595.74 271.14 611.32 274.12 622.46 283.53 C 633.13 292.48 638.93 306.25 639.72 319.98 C 640.88 335.51 636.71 352.21 625.42 363.43 C 608.31 380.76 577.76 381.60 559.47 365.65 C 548.68 356.35 543.13 342.01 542.80 327.96 C 542.01 313.43 545.97 297.99 556.23 287.28 C 562.96 280.23 571.91 275.21 581.58 273.67 M 584.41 290.52 C 576.53 292.29 569.73 297.94 566.20 305.17 C 561.63 314.34 561.06 325.07 562.94 335.02 C 564.47 343.28 568.94 351.27 576.12 355.87 C 587.16 363.14 603.53 361.25 612.12 351.03 C 619.22 342.89 621.19 331.56 620.51 321.07 C 619.97 311.70 616.57 301.96 609.16 295.84 C 602.48 290.01 592.87 288.64 584.41 290.52 Z" />
<path fill="#010101" opacity="1.00" d=" M 698.08 273.11 C 713.26 271.34 729.77 276.23 739.97 288.00 C 757.01 307.90 757.22 339.75 741.24 360.32 C 724.03 381.58 687.81 382.83 669.30 362.64 C 658.77 351.66 654.83 335.88 655.73 321.00 C 656.37 308.25 660.92 295.26 670.18 286.21 C 677.62 278.82 687.66 274.18 698.08 273.11 M 696.49 290.72 C 687.69 292.95 680.73 300.03 677.67 308.45 C 674.33 317.47 674.24 327.49 676.24 336.82 C 678.09 344.38 682.41 351.57 688.99 355.92 C 698.56 362.10 711.88 361.55 721.05 354.86 C 727.14 350.35 730.78 343.22 732.41 335.95 C 735.21 322.17 733.41 305.55 722.16 295.87 C 715.19 289.90 705.21 288.51 696.49 290.72 Z" />
<path fill="#010101" opacity="1.00" d=" M 1093.99 280.07 C 1108.10 270.92 1127.19 269.99 1142.05 277.92 C 1153.61 284.07 1161.42 296.32 1162.78 309.28 C 1156.48 309.16 1150.18 309.45 1143.90 309.17 C 1142.18 305.90 1142.11 301.51 1139.55 298.46 C 1130.02 285.67 1107.91 287.11 1099.11 300.03 C 1094.54 306.39 1092.71 314.30 1092.46 322.03 C 1092.01 331.69 1093.62 341.88 1099.29 349.95 C 1106.95 361.04 1123.95 363.48 1134.88 355.93 C 1140.14 352.12 1142.59 345.66 1143.34 339.41 C 1149.83 339.24 1156.32 339.18 1162.82 339.28 C 1161.51 350.18 1157.03 361.29 1148.19 368.22 C 1128.49 382.99 1096.60 379.13 1082.48 358.44 C 1073.80 345.57 1071.76 329.20 1073.92 314.08 C 1075.80 300.77 1082.44 287.48 1093.99 280.07 Z" />
<path fill="#010101" opacity="1.00" d=" M 457.36 274.40 C 480.88 274.38 504.39 274.44 527.90 274.37 C 528.01 280.18 527.96 285.99 527.97 291.81 C 510.69 291.80 493.42 291.75 476.14 291.95 C 476.28 299.59 476.26 307.23 476.13 314.86 C 491.21 315.65 506.32 314.67 521.40 315.49 C 521.08 321.09 521.19 326.71 521.32 332.33 C 506.28 332.31 491.25 332.47 476.21 332.38 C 476.25 346.74 476.17 361.10 476.38 375.45 C 469.99 375.43 463.59 375.58 457.20 375.36 C 457.47 341.71 457.36 308.05 457.36 274.40 Z" />
<path fill="#010101" opacity="1.00" d=" M 772.97 274.33 C 788.33 274.77 803.75 273.53 819.05 275.34 C 832.05 276.95 845.22 283.72 851.49 295.66 C 859.03 310.35 859.03 327.78 855.47 343.59 C 852.32 356.46 842.62 367.88 829.81 371.86 C 811.37 377.91 791.76 374.54 772.76 375.46 C 772.89 341.75 772.57 308.04 772.97 274.33 M 791.68 291.80 C 791.77 313.89 791.78 335.97 791.65 358.06 C 803.67 357.74 816.99 359.70 827.60 352.72 C 836.75 346.46 838.55 334.32 838.45 324.04 C 838.43 314.35 836.66 302.90 827.90 297.14 C 817.20 290.12 803.79 292.12 791.68 291.80 Z" />
<path fill="#010101" opacity="1.00" d=" M 931.13 274.31 C 937.35 274.45 943.56 274.37 949.78 274.47 C 949.82 308.20 950.06 341.95 949.57 375.68 C 943.35 375.32 937.12 375.46 930.89 375.46 C 931.11 341.74 930.87 308.02 931.13 274.31 Z" />
<path fill="#010101" opacity="1.00" d=" M 972.39 274.40 C 978.38 274.38 984.38 274.41 990.38 274.48 C 1005.48 296.88 1019.97 319.70 1035.46 341.84 C 1034.91 319.35 1035.19 296.86 1035.20 274.37 C 1041.31 274.43 1047.43 274.38 1053.56 274.41 C 1053.43 308.10 1053.59 341.80 1053.54 375.49 C 1047.64 375.35 1041.75 375.35 1035.86 375.47 C 1022.79 356.40 1010.29 336.94 997.21 317.88 C 995.06 314.81 993.15 311.55 990.62 308.76 C 990.60 330.98 990.50 353.20 990.76 375.42 C 984.62 375.37 978.48 375.39 972.34 375.49 C 972.36 341.79 972.41 308.10 972.39 274.40 Z" />
<path fill="#010101" opacity="1.00" d=" M 875.62 356.54 C 882.07 356.53 888.53 356.53 895.00 356.54 C 894.52 366.23 896.74 376.77 891.74 385.65 C 888.63 391.27 881.86 393.76 875.69 392.98 C 875.62 389.42 875.62 385.86 875.71 382.31 C 879.08 381.45 881.86 379.08 882.70 375.61 C 880.34 375.52 877.99 375.48 875.64 375.43 C 875.72 369.13 875.71 362.84 875.62 356.54 Z" />
<path fill="#010101" opacity="1.00" d=" M 1180.44 356.54 C 1186.65 356.53 1192.86 356.52 1199.08 356.54 C 1199.06 362.85 1199.05 369.15 1199.03 375.46 C 1192.84 375.47 1186.65 375.47 1180.46 375.46 C 1180.51 369.15 1180.51 362.85 1180.44 356.54 Z" />
</g>
</svg>
